<svg id="Layer_1" data-name="Layer 1" xmlns="http://www.w3.org/2000/svg" viewBox="0 0 1225.45 1031.98"><title>main</title><rect x="284.97" y="217.43" width="519.12" height="717.4" style="fill:#0059b3"/><polygon points="804.09 934.83 837.5 867.99 837.5 159.5 804.09 217.43 804.09 934.83" style="fill:#fff"/><path d="M1295.4,755.7s22.28,231.71,138.13,231.71c127,0,144.82-231.71,144.82-231.71Z" transform="translate(-353.18 -8.02)" style="fill:#f37022"/><path d="M1424.9,733.42H1295.4s-22.28-158.19,129.22-158.19v44.56s-11.14,2.23-11.14,44.56c0,46.79,11.14,51.25,11.14,51.25Z" transform="translate(-353.18 -8.02)" style="fill:#f37022"/><path d="M1448,733.42h129.5s22.28-158.19-129.22-158.19v44.56s11.14,2.23,11.14,44.56c0,46.79-11.14,51.25-11.14,51.25Z" transform="translate(-353.18 -8.02)" style="fill:#f37022"/><polygon points="837.5 870.22 837.5 159.5 855.33 146.13 855.33 850.17 837.5 870.22" style="fill:#0059b3"/><path d="M638.15,942.85S593.59,929.48,593.59,905V189.8s13.37-35.65,69.07-35.65h545.85l-17.83,13.37H638.15Z" transform="translate(-353.18 -8.02)" style="fill:#0059b3"/><path d="M642.6,225.44h514.66l33.42-57.92H642.6a29,29,0,0,0-29,29h0A29,29,0,0,0,642.6,225.44Z" transform="translate(-353.18 -8.02)" style="fill:#fff"/><path d="M1435.76,566.32c0-304.17-241.15-550.3-539.17-550.3C581.34,16,361.88,277.15,361.88,610.88c0,0-15.59,193.83,100.26,325.28S691.62,1052,680.48,960.67" transform="translate(-353.18 -8.02)" style="fill:none;stroke:#f37022;stroke-miterlimit:10;stroke-width:16px"/></svg>