<?xml version="1.0" encoding="utf-8"?>
<!-- Generator: Adobe Illustrator 23.0.0, SVG Export Plug-In . SVG Version: 6.00 Build 0)  -->
<svg version="1.1" id="Layer_1" xmlns="http://www.w3.org/2000/svg" xmlns:xlink="http://www.w3.org/1999/xlink" x="0px" y="0px"
	 viewBox="0 0 1200 928.3" style="enable-background:new 0 0 1200 928.3;" xml:space="preserve">
<style type="text/css">
	.st0{display:none;}
	.st1{display:inline;}
	.st2{display:inline;fill:#FFFFFF;}
	.st3{opacity:0.75;}
	.st4{fill:url(#SVGID_1_);}
	.st5{opacity:0.37;}
	.st6{fill:url(#SVGID_2_);}
	.st7{fill:url(#SVGID_3_);}
	.st8{fill:url(#SVGID_4_);}
	.st9{display:none;opacity:0.31;}
	.st10{display:inline;fill:url(#SVGID_5_);}
	.st11{display:inline;fill:url(#SVGID_6_);}
	.st12{display:inline;fill:url(#SVGID_7_);}
	.st13{display:inline;fill:url(#SVGID_8_);}
	.st14{display:inline;fill:url(#SVGID_9_);}
	.st15{display:inline;fill:url(#SVGID_10_);}
	.st16{display:inline;fill:url(#SVGID_11_);}
	.st17{display:inline;fill:url(#SVGID_12_);}
	.st18{display:inline;fill:url(#SVGID_13_);}
	.st19{display:inline;fill:url(#SVGID_14_);}
	.st20{display:inline;fill:url(#SVGID_15_);}
	.st21{fill:url(#SVGID_16_);stroke:#4D4D4D;stroke-miterlimit:10;}
	.st22{fill:url(#SVGID_17_);stroke:#4D4D4D;stroke-miterlimit:10;}
	.st23{fill:url(#SVGID_18_);stroke:#4D4D4D;stroke-miterlimit:10;}
	.st24{fill:url(#SVGID_19_);stroke:#4D4D4D;stroke-miterlimit:10;}
	.st25{opacity:0.26;fill:none;stroke:#000000;stroke-miterlimit:10;enable-background:new    ;}
</style>
<g class="st0">
	<path class="st1" d="M602.3,1053.1c-78.3,0-154.2-15.3-225.7-45.6c-69.1-29.2-131.1-71-184.3-124.3S97.2,768,68,698.9
		c-30.2-71.5-45.6-147.4-45.6-225.7S37.7,319,68,247.5c29.2-69.1,71-131.1,124.3-184.3S307.5-32,376.6-61.1
		c71.5-30.3,147.4-45.6,225.7-45.6S756.5-91.4,828-61.1c69,29.2,131.1,71,184.3,124.3c53.3,53.3,95.1,115.3,124.3,184.3
		c30.2,71.5,45.6,147.4,45.6,225.7s-15.3,154.2-45.6,225.7c-29.2,69-71,131.1-124.3,184.3C959,936.5,897,978.3,828,1007.5
		C756.5,1037.8,680.6,1053.1,602.3,1053.1z"/>
	<path class="st2" d="M602.3-106.2c78.2,0,154.1,15.3,225.5,45.5c34.3,14.5,67.4,32.5,98.4,53.4c30.7,20.7,59.5,44.5,85.8,70.8
		c26.3,26.3,50,55.1,70.8,85.8c20.9,31,38.9,64.1,53.4,98.4c30.2,71.4,45.5,147.3,45.5,225.5s-15.3,154.1-45.5,225.5
		c-14.5,34.3-32.5,67.4-53.4,98.4c-20.7,30.7-44.5,59.5-70.8,85.8s-55.1,50-85.8,70.8c-31,20.9-64.1,38.9-98.4,53.4
		c-71.4,30.2-147.3,45.5-225.5,45.5s-154.1-15.3-225.5-45.5c-34.3-14.5-67.4-32.5-98.4-53.4c-30.7-20.7-59.5-44.5-85.8-70.8
		s-50-55.1-70.8-85.8c-20.9-31-38.9-64.1-53.4-98.4c-30.2-71.4-45.5-147.3-45.5-225.5s15.3-154.1,45.5-225.5
		c14.5-34.3,32.5-67.4,53.4-98.4c20.7-30.7,44.5-59.5,70.8-85.8s55.1-50,85.8-70.8c31-20.9,64.1-38.9,98.4-53.4
		C448.2-90.9,524.1-106.2,602.3-106.2 M602.3-107.2c-320.6,0-580.4,259.8-580.4,580.4s259.8,580.4,580.4,580.4
		s580.4-259.8,580.4-580.4S922.8-107.2,602.3-107.2L602.3-107.2z"/>
</g>
<g>
	<g class="st3">
		<path d="M522.3,319.5v-45.5c0-13.2,4.4-24.2,13.3-32.9s19.6-13,32.1-13h564.6c12.5,0,23.3,4.3,32.1,13s13.3,19.6,13.3,32.9v54.1
			c0,13.3-2.8,25.9-8.5,38.2s-10.9,21-15.7,26.1l-21.2,21.8L803.2,734.7c-18.7,18.2-5.8,49.8,20.2,49.8l0,0c13.2,0,24,4.3,32.6,13
			c8.6,8.7,12.8,19.6,12.8,32.9v45.4c0,13.3-4.3,24-12.8,32.6c-8.6,8.6-19.5,12.8-32.6,12.8H576.1c-12.5,0-23.3-4.3-32.1-12.8
			c-8.9-8.6-13.3-19.4-13.3-32.6v-53.6c0-31,15.2-61.6,45.4-91.8l368.4-365.5H567.9c-12.5,0-23.3-4.3-32.1-12.8
			C526.7,343.5,522.3,332.6,522.3,319.5z"/>
	</g>
	<g>
		<g>
			
				<linearGradient id="SVGID_1_" gradientUnits="userSpaceOnUse" x1="231.8069" y1="454.8463" x2="925.0547" y2="454.8463" gradientTransform="matrix(0 1 -1 0 1297.8815 -10.7841)">
				<stop  offset="0" style="stop-color:#ED1E79"/>
				<stop  offset="1" style="stop-color:#014095"/>
			</linearGradient>
			<path class="st4" d="M515.3,312.5v-45.5c0-13.2,4.4-24.2,13.3-32.9s19.6-13,32.1-13h564.6c12.5,0,23.3,4.3,32.1,13
				s13.3,19.6,13.3,32.9v54.1c0,13.3-2.8,25.9-8.5,38.2s-10.9,21-15.7,26.1l-21.2,21.8L796.2,727.7c-18.7,18.2-5.8,49.8,20.2,49.8
				l0,0c13.2,0,24,4.3,32.6,13c8.6,8.7,12.8,19.6,12.8,32.9v45.4c0,13.3-4.3,24-12.8,32.6c-8.6,8.6-19.5,12.8-32.6,12.8H569.1
				c-12.5,0-23.3-4.3-32.1-12.8c-8.9-8.6-13.3-19.4-13.3-32.6v-53.6c0-31,15.2-61.6,45.4-91.8l368.4-365.5H560.9
				c-12.5,0-23.3-4.3-32.1-12.8C519.7,336.5,515.3,325.6,515.3,312.5z"/>
		</g>
	</g>
</g>
<g class="st5">
	
		<linearGradient id="SVGID_2_" gradientUnits="userSpaceOnUse" x1="514.1144" y1="430.3191" x2="1051.6453" y2="335.538" gradientTransform="matrix(1 0 0 -1 0 939.2341)">
		<stop  offset="0" style="stop-color:#000000"/>
		<stop  offset="4.522640e-02" style="stop-color:#080808;stop-opacity:0.9574"/>
		<stop  offset="0.1168" style="stop-color:#1F1F1F;stop-opacity:0.89"/>
		<stop  offset="0.2058" style="stop-color:#444444;stop-opacity:0.8061"/>
		<stop  offset="0.3088" style="stop-color:#787878;stop-opacity:0.7091"/>
		<stop  offset="0.4219" style="stop-color:#B9B9B9;stop-opacity:0.6025"/>
		<stop  offset="0.5307" style="stop-color:#FFFFFF;stop-opacity:0.5"/>
		<stop  offset="0.594" style="stop-color:#CBCBCB;stop-opacity:0.5674"/>
		<stop  offset="0.6766" style="stop-color:#8E8E8E;stop-opacity:0.6555"/>
		<stop  offset="0.7561" style="stop-color:#5B5B5B;stop-opacity:0.7401"/>
		<stop  offset="0.8302" style="stop-color:#343434;stop-opacity:0.8191"/>
		<stop  offset="0.8978" style="stop-color:#171717;stop-opacity:0.8911"/>
		<stop  offset="0.9565" style="stop-color:#060606;stop-opacity:0.9537"/>
		<stop  offset="1" style="stop-color:#000000"/>
	</linearGradient>
	<path class="st6" d="M515.3,312.5v-45.5c0-13.2,4.4-24.2,13.3-32.9s19.6-13,32.1-13h564.6c12.5,0,23.3,4.3,32.1,13
		s13.3,19.6,13.3,32.9v54.1c0,13.3-2.8,25.9-8.5,38.2s-10.9,21-15.7,26.1l-21.2,21.8L796.2,727.7c-18.7,18.2-5.8,49.8,20.2,49.8l0,0
		c13.2,0,24,4.3,32.6,13c8.6,8.7,12.8,19.6,12.8,32.9v45.4c0,13.3-4.3,24-12.8,32.6c-8.6,8.6-19.5,12.8-32.6,12.8H569.1
		c-12.5,0-23.3-4.3-32.1-12.8c-8.9-8.6-13.3-19.4-13.3-32.6v-53.6c0-31,15.2-61.6,45.4-91.8l368.4-365.5H560.9
		c-12.5,0-23.3-4.3-32.1-12.8C519.7,336.5,515.3,325.6,515.3,312.5z"/>
</g>
<g>
	<g class="st3">
		<path d="M794,28.1v102.7c0,6.1-5.4,11-12,11H492.3c-6.6,0-12,4.9-12,11v688.8c0,15.2-13.5,27.6-30.2,27.6h-68.6
			c-16.7,0-30.2-12.4-30.2-27.6V152.8c0-6.1-5.4-11-12-11h-291c-6.6,0-12-4.9-12-11V28.1c0-6.1,5.4-11,12-11H782
			C788.7,17.2,794,22.1,794,28.1z"/>
	</g>
	<g>
		<g>
			
				<linearGradient id="SVGID_3_" gradientUnits="userSpaceOnUse" x1="650.1593" y1="458.0768" x2="287.8288" y2="-177.4549" gradientTransform="matrix(1 0 0 1 0 120)">
				<stop  offset="6.926126e-08" style="stop-color:#ED1E79"/>
				<stop  offset="0.1135" style="stop-color:#C3247E"/>
				<stop  offset="0.2902" style="stop-color:#892C85"/>
				<stop  offset="0.4611" style="stop-color:#58338B"/>
				<stop  offset="0.6218" style="stop-color:#32398F"/>
				<stop  offset="0.7697" style="stop-color:#173D92"/>
				<stop  offset="0.9004" style="stop-color:#073F94"/>
				<stop  offset="1" style="stop-color:#014095"/>
			</linearGradient>
			<path class="st7" d="M787,21.1v102.7c0,6.1-5.4,11-12,11H485.3c-6.6,0-12,4.9-12,11v688.8c0,15.2-13.5,27.6-30.2,27.6h-68.6
				c-16.7,0-30.2-12.4-30.2-27.6V145.8c0-6.1-5.4-11-12-11h-291c-6.6,0-12-4.9-12-11V21.1c0-6.1,5.4-11,12-11H775
				C781.7,10.2,787,15.1,787,21.1z"/>
		</g>
	</g>
</g>
<g class="st5">
	
		<linearGradient id="SVGID_4_" gradientUnits="userSpaceOnUse" x1="205.5997" y1="859.9285" x2="768.7945" y2="309.6511" gradientTransform="matrix(1 0 0 -1 0 939.2341)">
		<stop  offset="0" style="stop-color:#000000"/>
		<stop  offset="4.522640e-02" style="stop-color:#080808;stop-opacity:0.9574"/>
		<stop  offset="0.1168" style="stop-color:#1F1F1F;stop-opacity:0.89"/>
		<stop  offset="0.2058" style="stop-color:#444444;stop-opacity:0.8061"/>
		<stop  offset="0.3088" style="stop-color:#787878;stop-opacity:0.7091"/>
		<stop  offset="0.4219" style="stop-color:#B9B9B9;stop-opacity:0.6025"/>
		<stop  offset="0.5307" style="stop-color:#FFFFFF;stop-opacity:0.5"/>
		<stop  offset="0.594" style="stop-color:#CBCBCB;stop-opacity:0.5674"/>
		<stop  offset="0.6766" style="stop-color:#8E8E8E;stop-opacity:0.6555"/>
		<stop  offset="0.7561" style="stop-color:#5B5B5B;stop-opacity:0.7401"/>
		<stop  offset="0.8302" style="stop-color:#343434;stop-opacity:0.8191"/>
		<stop  offset="0.8978" style="stop-color:#171717;stop-opacity:0.8911"/>
		<stop  offset="0.9565" style="stop-color:#060606;stop-opacity:0.9537"/>
		<stop  offset="1" style="stop-color:#000000"/>
	</linearGradient>
	<path class="st8" d="M787,21.1v102.7c0,6.1-5.4,11-12,11H485.3c-6.6,0-12,4.9-12,11v688.8c0,15.2-13.5,27.6-30.2,27.6h-68.6
		c-16.7,0-30.2-12.4-30.2-27.6V145.8c0-6.1-5.4-11-12-11h-291c-6.6,0-12-4.9-12-11V21.1c0-6.1,5.4-11,12-11H775
		C781.7,10.2,787,15.1,787,21.1z"/>
</g>
<g class="st9">
	
		<linearGradient id="SVGID_5_" gradientUnits="userSpaceOnUse" x1="598.041" y1="649.9332" x2="606.4526" y2="870.7381" gradientTransform="matrix(1 0 0 1 0 120)">
		<stop  offset="6.926126e-08" style="stop-color:#ED1E79"/>
		<stop  offset="1" style="stop-color:#1B1464"/>
	</linearGradient>
	<path class="st10" d="M594.8,892.5c-1.9-1.2-3.3-2.9-4.2-5s-1.4-4.5-1.4-7.1c0-3.2,0.6-5.8,1.8-7.8s2.8-3.5,4.8-4.5
		s4.3-1.4,6.9-1.4c2.8,0,5.1,0.6,7,1.8s3.3,2.9,4.2,4.9c0.9,2.1,1.4,4.4,1.4,7c0,3.2-0.6,5.9-1.8,7.9s-2.8,3.5-4.8,4.5
		c-2,0.9-4.3,1.4-6.9,1.4C599,894.3,596.7,893.7,594.8,892.5z M610,880.5c0-2.9-0.6-5.2-1.9-7c-1.3-1.7-3.1-2.6-5.6-2.6
		c-2.8,0-4.8,0.8-6,2.5s-1.8,4-1.8,7s0.6,5.3,1.9,7c1.3,1.8,3.2,2.6,5.7,2.6C607.4,890.1,610,886.9,610,880.5z"/>
	
		<linearGradient id="SVGID_6_" gradientUnits="userSpaceOnUse" x1="628.6059" y1="648.7689" x2="637.0176" y2="869.5739" gradientTransform="matrix(1 0 0 1 0 120)">
		<stop  offset="6.926126e-08" style="stop-color:#ED1E79"/>
		<stop  offset="1" style="stop-color:#1B1464"/>
	</linearGradient>
	<path class="st11" d="M644.3,875v18.6h-5.1v-16.7c0-1.5-0.2-2.6-0.5-3.4s-0.8-1.4-1.5-1.8s-1.6-0.5-2.8-0.5s-2.5,0.2-3.8,0.5
		s-2.6,0.8-3.8,1.3v20.5h-5.1v-26.2l5.1-0.6v2.5c3.3-1.8,6.5-2.6,9.5-2.6C641.6,866.7,644.3,869.5,644.3,875z"/>
	
		<linearGradient id="SVGID_7_" gradientUnits="userSpaceOnUse" x1="657.9428" y1="647.6512" x2="666.3543" y2="868.4561" gradientTransform="matrix(1 0 0 1 0 120)">
		<stop  offset="6.926126e-08" style="stop-color:#ED1E79"/>
		<stop  offset="1" style="stop-color:#1B1464"/>
	</linearGradient>
	<path class="st12" d="M673.7,881.4h-18.2c0,3,0.8,5.2,2.2,6.5s3.2,2,5.5,2c1.6,0,3-0.2,4.2-0.6c1.2-0.4,2.5-1,3.9-1.8l2,3.6
		c-3.3,2.1-6.7,3.2-10.3,3.2c-3.8,0-6.9-1.1-9.2-3.2s-3.4-5.5-3.4-10.1c0-2.6,0.5-5,1.4-7.2s2.4-3.9,4.3-5.2s4.2-1.9,7-1.9
		c2.3,0,4.3,0.5,5.9,1.4c1.6,0.9,2.9,2.2,3.7,3.8s1.3,3.5,1.3,5.6L673.7,881.4z M658.1,872.6c-1.2,1.2-1.9,2.9-2.3,5.1h13v-0.2
		c0-2.2-0.5-3.9-1.5-5s-2.5-1.7-4.3-1.7C660.9,870.7,659.2,871.3,658.1,872.6z"/>
	
		<linearGradient id="SVGID_8_" gradientUnits="userSpaceOnUse" x1="683.6171" y1="646.6733" x2="692.0284" y2="867.4708" gradientTransform="matrix(1 0 0 1 0 120)">
		<stop  offset="6.926126e-08" style="stop-color:#ED1E79"/>
		<stop  offset="1" style="stop-color:#1B1464"/>
	</linearGradient>
	<path class="st13" d="M682.3,893.4c-1.9-0.6-3.6-1.5-5.2-2.7l2.3-3.6c2.9,2.1,5.9,3.1,9.1,3.1c1.8,0,3.2-0.3,4.1-0.9
		c1-0.6,1.4-1.5,1.4-2.7c0-1-0.4-1.8-1.3-2.5c-0.9-0.7-2.4-1.3-4.5-1.9l-1.8-0.5c-2.8-0.7-4.8-1.7-6.1-2.8c-1.3-1.2-1.9-2.7-1.9-4.7
		c0-1.5,0.4-2.8,1.3-3.9c0.8-1.1,2-2,3.5-2.7c1.5-0.6,3.2-1,5-1s3.5,0.2,5.2,0.6c1.7,0.4,3.3,1.1,5,2.1l-2.1,3.6
		c-1.6-0.9-3-1.5-4.2-1.8s-2.5-0.5-3.8-0.5c-1.4,0-2.6,0.3-3.4,0.9c-0.8,0.6-1.2,1.3-1.2,2.3c0,0.8,0.3,1.5,1,1.9s1.8,0.9,3.4,1.3
		l1.8,0.5c2.3,0.6,4.1,1.3,5.5,2s2.4,1.7,3,2.7s1,2.3,1,3.8c0,1.6-0.4,3-1.2,4.2s-2,2.2-3.6,2.8c-1.6,0.7-3.5,1-5.8,1
		C686.3,894.3,684.2,894,682.3,893.4z"/>
</g>
<g class="st9">
	
		<linearGradient id="SVGID_9_" gradientUnits="userSpaceOnUse" x1="570.3653" y1="24.087" x2="578.076" y2="246.2939" gradientTransform="matrix(1 0 0 1 0 120)">
		<stop  offset="6.926126e-08" style="stop-color:#ED1E79"/>
		<stop  offset="1" style="stop-color:#1B1464"/>
	</linearGradient>
	<path class="st14" d="M584.9,233.6h-18.2c0,3,0.8,5.2,2.2,6.5s3.2,2,5.5,2c1.6,0,3-0.2,4.2-0.6s2.5-1,3.9-1.9l2,3.6
		c-3.3,2.1-6.7,3.2-10.3,3.2c-3.8,0-6.9-1.1-9.2-3.2s-3.4-5.5-3.4-10.1c0-2.6,0.5-5,1.4-7.2c1-2.1,2.4-3.9,4.3-5.2
		c1.9-1.3,4.2-1.9,7-1.9c2.3,0,4.3,0.5,5.9,1.4c1.6,0.9,2.9,2.2,3.7,3.9c0.8,1.6,1.3,3.5,1.3,5.6L584.9,233.6z M569.3,224.7
		c-1.2,1.2-1.9,2.9-2.3,5.1h13v-0.2c0-2.2-0.5-3.9-1.5-5s-2.5-1.7-4.3-1.7C572.1,222.9,570.5,223.5,569.3,224.7z"/>
	
		<linearGradient id="SVGID_10_" gradientUnits="userSpaceOnUse" x1="596.8655" y1="23.1675" x2="604.5762" y2="245.3743" gradientTransform="matrix(1 0 0 1 0 120)">
		<stop  offset="6.926126e-08" style="stop-color:#ED1E79"/>
		<stop  offset="1" style="stop-color:#1B1464"/>
	</linearGradient>
	<path class="st15" d="M608.9,221c1.5,1.4,2.3,3.6,2.3,6.6v18.2h-4.7l-0.3-2.3c-2.8,2-5.9,3-9.5,3c-1.5,0-2.9-0.3-4.1-0.9
		c-1.2-0.6-2.1-1.4-2.8-2.5c-0.7-1-1-2.3-1-3.6c0-2.2,0.8-4,2.3-5.5s3.6-2.5,6.2-3.2s5.5-1.1,8.6-1.1v-1.3c0-1.8-0.4-3.1-1.1-3.9
		c-0.7-0.8-1.9-1.2-3.6-1.2c-2.9,0-5.9,1-9.1,3.1l-2.3-3.6c3.8-2.6,7.8-3.9,12-3.9C605,218.9,607.3,219.6,608.9,221z M595.3,241.4
		c0.6,0.5,1.5,0.8,2.8,0.8c2.7,0,5.3-0.8,7.9-2.4v-6.2c-3.5,0.2-6.3,0.7-8.4,1.6c-2.2,0.9-3.2,2.2-3.2,3.9
		C594.4,240.1,594.7,240.8,595.3,241.4z"/>
	
		<linearGradient id="SVGID_11_" gradientUnits="userSpaceOnUse" x1="624.9379" y1="22.1933" x2="632.6485" y2="244.4002" gradientTransform="matrix(1 0 0 1 0 120)">
		<stop  offset="6.926126e-08" style="stop-color:#ED1E79"/>
		<stop  offset="1" style="stop-color:#1B1464"/>
	</linearGradient>
	<path class="st16" d="M620.5,243.4c-2.2-2.1-3.3-5.4-3.3-10c0-3.3,0.6-6,1.9-8.2c1.3-2.2,2.9-3.8,4.9-4.8s4.2-1.5,6.4-1.5
		c2.6,0,5.4,0.8,8.2,2.3l-1.9,3.9c-1.4-0.7-2.6-1.1-3.6-1.4s-2.1-0.4-3.1-0.4c-2.3,0-4.2,0.9-5.5,2.7c-1.3,1.8-2,4.3-2,7.4
		s0.7,5.3,2,6.7c1.3,1.4,3.1,2,5.4,2c1.3,0,2.6-0.2,3.7-0.6c1.1-0.4,2.3-1,3.6-1.8l2,3.6c-1.5,1-3,1.7-4.6,2.3s-3.3,0.9-5.2,0.9
		C625.7,246.5,622.7,245.4,620.5,243.4z"/>
	
		<linearGradient id="SVGID_12_" gradientUnits="userSpaceOnUse" x1="652.3521" y1="21.2421" x2="660.0627" y2="243.449" gradientTransform="matrix(1 0 0 1 0 120)">
		<stop  offset="6.926126e-08" style="stop-color:#ED1E79"/>
		<stop  offset="1" style="stop-color:#1B1464"/>
	</linearGradient>
	<path class="st17" d="M664.7,220.8c1.4,1.3,2.2,3.3,2.2,6.2v18.8h-5.1v-16.7c0-1.5-0.2-2.6-0.5-3.4s-0.8-1.4-1.5-1.8
		s-1.6-0.5-2.8-0.5s-2.5,0.2-3.8,0.5s-2.6,0.8-3.7,1.3v20.6h-5.1v-41.1l5.1-0.6v17.4c3.3-1.7,6.4-2.6,9.4-2.6
		C661.3,218.9,663.2,219.5,664.7,220.8z"/>
	
		<linearGradient id="SVGID_13_" gradientUnits="userSpaceOnUse" x1="674.9041" y1="20.4595" x2="682.6148" y2="242.6663" gradientTransform="matrix(1 0 0 1 0 120)">
		<stop  offset="6.926126e-08" style="stop-color:#ED1E79"/>
		<stop  offset="1" style="stop-color:#1B1464"/>
	</linearGradient>
	<path class="st18" d="M675.6,213.8c-0.6-0.3-1-0.8-1.3-1.3c-0.3-0.6-0.5-1.1-0.5-1.8c0-0.7,0.2-1.3,0.5-1.9s0.8-1,1.3-1.3
		c0.6-0.3,1.2-0.5,1.8-0.5c0.7,0,1.3,0.2,1.8,0.5s1,0.8,1.3,1.3c0.3,0.6,0.5,1.2,0.5,1.9c0,0.6-0.2,1.2-0.5,1.8s-0.8,1-1.3,1.3
		c-0.6,0.3-1.2,0.5-1.8,0.5S676.2,214.1,675.6,213.8z M674.9,245.8v-26.2l5.1-0.6v26.8L674.9,245.8L674.9,245.8z"/>
	
		<linearGradient id="SVGID_14_" gradientUnits="userSpaceOnUse" x1="696.4458" y1="19.712" x2="704.1564" y2="241.9188" gradientTransform="matrix(1 0 0 1 0 120)">
		<stop  offset="6.926126e-08" style="stop-color:#ED1E79"/>
		<stop  offset="1" style="stop-color:#1B1464"/>
	</linearGradient>
	<path class="st19" d="M711.1,227.2v18.6H706v-16.7c0-1.5-0.2-2.6-0.5-3.4s-0.8-1.4-1.5-1.8s-1.6-0.5-2.8-0.5s-2.5,0.2-3.8,0.5
		s-2.6,0.8-3.8,1.4v20.5h-5.1v-26.2l5.1-0.6v2.5c3.3-1.8,6.5-2.6,9.5-2.6C708.4,218.9,711.1,221.7,711.1,227.2z"/>
	
		<linearGradient id="SVGID_15_" gradientUnits="userSpaceOnUse" x1="726.9557" y1="18.6533" x2="734.6664" y2="240.8602" gradientTransform="matrix(1 0 0 1 0 120)">
		<stop  offset="6.926126e-08" style="stop-color:#ED1E79"/>
		<stop  offset="1" style="stop-color:#1B1464"/>
	</linearGradient>
	<path class="st20" d="M739.6,242.6c1.5,0.5,2.6,1.3,3.4,2.2c0.8,1,1.1,2.2,1.1,3.7c0,1.8-0.6,3.4-1.8,4.8s-2.9,2.4-5,3.2
		c-2.2,0.7-4.8,1.1-7.8,1.1c-3.9,0-7-0.6-9.3-1.9c-2.3-1.3-3.5-3.1-3.5-5.5c0-1.5,0.4-2.8,1.1-3.8c0.7-1,1.8-1.9,3.2-2.8
		c-1.2-0.8-1.8-1.9-1.8-3.2c0-0.8,0.2-1.5,0.7-2.2s1.2-1.4,2.2-2.1c-1.4-0.8-2.5-1.9-3.2-3.2c-0.7-1.3-1.1-2.8-1.1-4.5
		c0-2.2,0.5-4,1.6-5.4s2.5-2.5,4.3-3.1s3.8-1,6-1c1.1,0,2.3,0.1,3.5,0.3l8.9-3.7l1.8,4.2l-6.1,1.7c1.2,0.9,2,1.9,2.6,3.1
		s0.8,2.5,0.8,3.9c0,3.2-1.1,5.6-3.4,7c-2.3,1.5-5.1,2.2-8.6,2.2c-1.5,0-2.9-0.1-4-0.4c-0.5,0.6-0.8,1.2-0.8,1.9
		c0,0.4,0.2,0.8,0.5,1c0.3,0.3,0.8,0.5,1.5,0.6s1.7,0.3,3,0.4l4.2,0.4C736.2,241.7,738.1,242.1,739.6,242.6z M736,252.6
		c1.7-0.7,2.6-1.8,2.6-3.3c0-0.7-0.2-1.3-0.7-1.8s-1.2-0.8-2.2-1.1c-1-0.3-2.3-0.5-3.9-0.6l-4.2-0.4c-1.3-0.1-2.5-0.3-3.5-0.5
		c-0.8,0.7-1.3,1.4-1.8,2.2s-0.6,1.6-0.6,2.4c0,1.4,0.6,2.4,1.9,3.1c1.3,0.7,3.3,1,6,1C732.2,253.6,734.3,253.2,736,252.6z
		 M724.5,224.3c-1.1,1-1.6,2.4-1.6,4.1s0.5,3.1,1.6,4.1s2.8,1.5,5.1,1.5c4.3,0,6.5-1.8,6.5-5.4c0-1.8-0.6-3.2-1.7-4.2
		s-2.8-1.5-4.9-1.5C727.2,222.7,725.6,223.2,724.5,224.3z"/>
</g>
<linearGradient id="SVGID_16_" gradientUnits="userSpaceOnUse" x1="781.9565" y1="725.8457" x2="835.7495" y2="725.8457" gradientTransform="matrix(1 0 0 1 0 120)">
	<stop  offset="0" style="stop-color:#ED1E79"/>
	<stop  offset="1" style="stop-color:#014095"/>
</linearGradient>
<path class="st21" d="M827.9,826.9L827.9,826.9c-10.2-10.2-26.8-10.5-37.4-0.5l0,0c-17.8,16.8-5.6,46.8,19,46.3l0,0
	C833,872.2,844.6,843.6,827.9,826.9z"/>
<linearGradient id="SVGID_17_" gradientUnits="userSpaceOnUse" x1="787.4893" y1="725.877" x2="830.2707" y2="725.877" gradientTransform="matrix(1 0 0 1 0 120)">
	<stop  offset="0" style="stop-color:#ED1E79"/>
	<stop  offset="1" style="stop-color:#014095"/>
</linearGradient>
<path class="st22" d="M823.9,830.8L823.9,830.8c-8.2-8.2-21.4-8.3-29.7-0.4l0,0c-14.2,13.4-4.4,37.2,15.1,36.8l0,0
	C828.1,866.8,837.2,844.1,823.9,830.8z"/>
<linearGradient id="SVGID_18_" gradientUnits="userSpaceOnUse" x1="792.972" y1="725.8684" x2="824.7459" y2="725.8684" gradientTransform="matrix(1 0 0 1 0 120)">
	<stop  offset="0" style="stop-color:#ED1E79"/>
	<stop  offset="1" style="stop-color:#014095"/>
</linearGradient>
<path class="st23" d="M820.1,834.6L820.1,834.6c-6.1-6.1-15.8-6.2-22.1-0.3l0,0c-10.5,10-3.3,27.7,11.1,27.4l0,0
	C823.2,861.4,830,844.5,820.1,834.6z"/>
<linearGradient id="SVGID_19_" gradientUnits="userSpaceOnUse" x1="798.1488" y1="725.8055" x2="819.606" y2="725.8055" gradientTransform="matrix(1 0 0 1 0 120)">
	<stop  offset="0" style="stop-color:#ED1E79"/>
	<stop  offset="1" style="stop-color:#014095"/>
</linearGradient>
<path class="st24" d="M816.5,838.3L816.5,838.3c-4-4-10.8-4.2-14.9-0.3l0,0c-7.1,6.7-2.3,18.7,7.6,18.5l0,0
	C818.5,856.3,823.2,845,816.5,838.3z"/>
<path class="st25" d="M781.9,20"/>
</svg>
