<svg id="Layer_1" data-name="Layer 1" xmlns="http://www.w3.org/2000/svg" viewBox="0 0 465.69 461.82"><title>e-learning</title><polyline points="276.69 455.42 6.4 455.42 6.4 6.4 287.58 6.4 352.97 71.79 352.97 182.96" style="fill:#e3f6ff"/><polygon points="276.69 461.82 0 461.82 0 0 290.24 0 359.38 69.14 359.38 182.96 346.57 182.96 346.57 74.44 284.93 12.81 12.81 12.81 12.81 449.01 276.69 449.01 276.69 461.82" style="fill:#4a3a70"/><rect x="52.18" y="76.29" width="71.93" height="71.93" style="fill:#ffb82d"/><path d="M165.82,160.63H81.08V75.89h84.74ZM93.89,147.82H153V88.7H93.89Z" transform="translate(-35.31 -6)" style="fill:#4a3a70"/><rect x="52.18" y="194.95" width="71.93" height="71.93" style="fill:#ffb82d"/><path d="M165.82,279.29H81.08V194.55h84.74ZM93.89,266.48H153V207.35H93.89Z" transform="translate(-35.31 -6)" style="fill:#4a3a70"/><rect x="52.18" y="313.6" width="71.93" height="71.93" style="fill:#ffb82d"/><path d="M165.82,397.94H81.08V313.21h84.74ZM93.89,385.13H153V326H93.89Z" transform="translate(-35.31 -6)" style="fill:#4a3a70"/><rect x="156.8" y="105.85" width="150.4" height="12.81" style="fill:#4a3a70"/><rect x="156.8" y="224.51" width="130.78" height="12.81" style="fill:#4a3a70"/><rect x="156.8" y="349.57" width="104.63" height="12.81" style="fill:#4a3a70"/><rect x="317.96" y="252.43" width="131.6" height="198.35" rx="43.59" style="fill:#605575"/><path d="M441.27,463.19H396.86a50.05,50.05,0,0,1-50-50V302a50,50,0,0,1,50-50h44.41a50,50,0,0,1,50,50V413.2A50.05,50.05,0,0,1,441.27,463.19ZM396.86,264.84A37.23,37.23,0,0,0,359.68,302V413.2a37.23,37.23,0,0,0,37.18,37.19h44.41a37.24,37.24,0,0,0,37.2-37.19V302a37.24,37.24,0,0,0-37.2-37.19Z" transform="translate(-35.31 -6)" style="fill:#4a3a70"/><path d="M425.47,258.44h-12.8V219.89A25.36,25.36,0,0,1,438,194.55h33.32c10.85-7.53,16.51-15.79,16.86-24.56.56-14.29-12.59-27.2-17.22-31.3H388.28v-12.8h87.2l1.72,1.33c1,.79,24.68,19.35,23.77,43.21-.5,13.57-8.63,25.63-24.16,35.87l-1.6,1H438a12.55,12.55,0,0,0-12.53,12.54Z" transform="translate(-35.31 -6)" style="fill:#4a3a70"/><rect x="377.36" y="285.4" width="12.81" height="45.77" style="fill:#4a3a70"/></svg>