<svg id="Layer_1" data-name="Layer 1" xmlns="http://www.w3.org/2000/svg" viewBox="0 0 377.71 354.06"><title>earth</title><path d="M68.28,150.6a140.44,140.44,0,1,0,250.5.76" transform="translate(-4.06 -6)" style="fill:#e3f6ff"/><path d="M193.33,360.06c-80.22,0-145.48-65.26-145.48-145.48A143.81,143.81,0,0,1,63.8,148.3l9,4.59a133.91,133.91,0,0,0-14.84,61.69C57.92,289.25,118.67,350,193.33,350s135.41-60.74,135.41-135.41a133.92,133.92,0,0,0-14.46-61l9-4.54a143.85,143.85,0,0,1,15.54,65.49C338.81,294.8,273.55,360.06,193.33,360.06Z" transform="translate(-4.06 -6)" style="fill:#4a3a70"/><path d="M310.75,100.5v36.85s-118.26,83.12-237.37,0V100.5" transform="translate(-4.06 -6)" style="fill:#605575"/><path d="M187.41,179.07c-36,0-76.51-9.39-116.91-37.59L68.34,140V100.5H78.41v34.2c105.42,71.75,211.06,10.25,227.31-.07V100.5h10.06V140l-2.13,1.51C312.84,142,258.91,179.07,187.41,179.07Z" transform="translate(-4.06 -6)" style="fill:#4a3a70"/><rect x="346.21" y="79.08" width="10.07" height="43.7" style="fill:#4a3a70"/><circle cx="352.49" cy="148.11" r="20.19" style="fill:#ffb82d"/><path d="M356.55,179.33a25.22,25.22,0,1,1,25.22-25.22A25.24,25.24,0,0,1,356.55,179.33Zm0-40.37a15.15,15.15,0,1,0,15.15,15.15A15.17,15.17,0,0,0,356.55,139Z" transform="translate(-4.06 -6)" style="fill:#4a3a70"/><rect x="56.47" y="201.3" width="262.22" height="10.07" style="fill:#4a3a70"/><path d="M84.21,304.64l-4.53-9c1.13-.58,114.9-56.64,227.3,0l-4.53,9C194.68,250.34,85.29,304.08,84.21,304.64Z" transform="translate(-4.06 -6)" style="fill:#4a3a70"/><rect x="184.24" y="170.34" width="10.07" height="169.67" style="fill:#4a3a70"/><path d="M213.08,350.74l-3.47-9.45c63.14-23.18,44.92-167.13,44.73-168.58l10-1.31C265.15,177.64,283.75,324.8,213.08,350.74Z" transform="translate(-4.06 -6)" style="fill:#4a3a70"/><path d="M172.65,350.74C102,324.8,120.57,177.64,121.4,171.4l10,1.31c-.19,1.45-18.41,145.4,44.74,168.58Z" transform="translate(-4.06 -6)" style="fill:#4a3a70"/><polygon points="356.39 69.65 189.27 117.64 16.19 69.65 186.29 5.38 356.39 69.65" style="fill:#605575"/><path d="M193.36,128.87,4.06,76.39,190.35,6,376.42,76.3ZM36.44,74.92l156.87,43.49L344.48,75,190.35,16.76Z" transform="translate(-4.06 -6)" style="fill:#4a3a70"/></svg>