<svg id="Layer_1" data-name="Layer 1" xmlns="http://www.w3.org/2000/svg" viewBox="0 0 512.26 446.5"><title>live</title><polyline points="505.34 325.36 505.34 439.58 449.96 439.58 449.96 394.33 62.3 394.33 62.3 439.58 6.92 439.58 6.92 325.36" style="fill:#ffb82d"/><polygon points="512.26 446.5 443.04 446.5 443.04 401.25 69.22 401.25 69.22 446.5 0 446.5 0 325.36 13.85 325.36 13.85 432.65 55.38 432.65 55.38 387.41 456.88 387.41 456.88 432.65 498.42 432.65 498.42 325.36 512.26 325.36 512.26 446.5" style="fill:#4a3a70"/><rect x="24.23" y="6.92" width="460.34" height="301.13" style="fill:#e3f6ff"/><path d="M503.86,329H29.67V14H503.86ZM43.52,315.13H490V27.84H43.52Z" transform="translate(-12.37 -14)" style="fill:#4a3a70"/><path d="M19.29,315.13s0,41.53,41.54,41.53H476.17c41.54,0,41.54-41.53,41.54-41.53Z" transform="translate(-12.37 -14)" style="fill:#605575"/><path d="M476.17,363.59H60.83c-38.33,0-48.46-31.7-48.46-48.46v-6.92H524.63v6.92C524.63,331.89,514.5,363.59,476.17,363.59ZM26.94,322.05c1.93,10.25,8.87,27.69,33.89,27.69H476.17c25,0,32-17.44,33.89-27.69Z" transform="translate(-12.37 -14)" style="fill:#4a3a70"/><circle cx="159.22" cy="121.14" r="31.15" style="fill:#ffe150"/><path d="M171.59,173.22a38.08,38.08,0,1,1,38.07-38.08A38.12,38.12,0,0,1,171.59,173.22Zm0-62.31a24.23,24.23,0,1,0,24.22,24.23A24.26,24.26,0,0,0,171.59,110.91Z" transform="translate(-12.37 -14)" style="fill:#4a3a70"/><path d="M251.19,266.67a79.61,79.61,0,1,0-159.21,0Z" transform="translate(-12.37 -14)" style="fill:#4ccc67"/><path d="M258.12,273.59H85.05v-6.92a86.54,86.54,0,0,1,173.07,0ZM99.23,259.75H243.94a72.68,72.68,0,0,0-144.71,0Z" transform="translate(-12.37 -14)" style="fill:#4a3a70"/><path d="M435.52,81.6H267.62a6,6,0,0,0-6,6V193.25a6,6,0,0,0,6,6h28.57v29.09l29.09-29.09H435.52a6,6,0,0,0,6-6V87.64A6,6,0,0,0,435.52,81.6Z" transform="translate(-12.37 -14)" style="fill:#feb92d"/><path d="M289.27,245.09V206.21H267.61a13,13,0,0,1-13-13V87.64a13,13,0,0,1,13-13H435.53a13,13,0,0,1,13,13V193.25a13,13,0,0,1-13,13H328.15ZM268.5,192.37h34.61v19.3l19.3-19.3H434.64V88.53H268.5Z" transform="translate(-12.37 -14)" style="fill:#4a3a70"/></svg>