<svg id="Layer_1" data-name="Layer 1" xmlns="http://www.w3.org/2000/svg" viewBox="0 0 367.69 366.38"><title>medal</title><polygon points="326.59 278.37 350.86 346.07 322.97 339.15 305.05 360.92 286.99 286.03 326.59 278.37" style="fill:#feb92d"/><path d="M314.35,381.38l-19.84-82.3,44.28-8.57,26.57,74.11L334.46,357ZM300.6,303l16.27,67.46,15.73-19.11,24.89,6.18-22-61.29Z" transform="translate(-10.56 -15)" style="fill:#4a3a70"/><polygon points="241.4 278.37 217.13 346.07 245.02 339.15 262.94 360.92 281 286.03 241.4 278.37" style="fill:#feb92d"/><path d="M274.76,381.38,254.65,357l-30.9,7.66,26.58-74.11,44.27,8.57Zm-18.25-30,15.74,19.11L288.52,303l-34.93-6.76-22,61.29Z" transform="translate(-10.56 -15)" style="fill:#4a3a70"/><polyline points="362.68 262.29 362.68 5 5 5 5 262.29 183.84 262.29" style="fill:#e3f6ff"/><polygon points="183.84 267.3 0 267.3 0 0 367.69 0 367.69 262.29 357.68 262.29 357.68 10.01 10.01 10.01 10.01 257.29 183.84 257.29 183.84 267.3" style="fill:#4a3a70"/><circle cx="119.28" cy="91.53" r="24.47" style="fill:#ffe150"/><path d="M129.84,136a29.48,29.48,0,1,1,29.48-29.48A29.51,29.51,0,0,1,129.84,136Zm0-48.95a19.47,19.47,0,1,0,19.47,19.47A19.5,19.5,0,0,0,129.84,87.06Z" transform="translate(-10.56 -15)" style="fill:#4a3a70"/><path d="M192.38,209.86a62.54,62.54,0,1,0-125.08,0Z" transform="translate(-10.56 -15)" style="fill:#00c6b3"/><path d="M197.38,214.86H62.3v-5a67.54,67.54,0,1,1,135.08,0Zm-124.86-10H187.16a57.54,57.54,0,0,0-114.64,0Z" transform="translate(-10.56 -15)" style="fill:#4a3a70"/><path d="M302.69,197.72h0c4.16-7.49,15.56-4.43,15.42,4.13h0A8.22,8.22,0,0,0,330.56,209h0c7.35-4.4,15.69,3.94,11.29,11.29h0A8.22,8.22,0,0,0,349,232.78h0c8.56-.14,11.62,11.26,4.13,15.42h0a8.23,8.23,0,0,0,0,14.39h0c7.49,4.15,4.43,15.56-4.13,15.41h0a8.23,8.23,0,0,0-7.19,12.46h0c4.4,7.35-3.94,15.69-11.29,11.29h0a8.22,8.22,0,0,0-12.45,7.19h0c.14,8.56-11.26,11.62-15.42,4.13h0a8.23,8.23,0,0,0-14.39,0h0c-4.15,7.49-15.56,4.43-15.41-4.13h0a8.23,8.23,0,0,0-12.46-7.19h0c-7.34,4.4-15.69-3.94-11.29-11.29h0A8.23,8.23,0,0,0,242,278h0c-8.56.15-11.62-11.26-4.13-15.41h0a8.23,8.23,0,0,0,0-14.39h0c-7.49-4.16-4.43-15.56,4.13-15.42h0a8.22,8.22,0,0,0,7.19-12.45h0c-4.4-7.35,4-15.69,11.29-11.29h0a8.23,8.23,0,0,0,12.46-7.19h0c-.15-8.56,11.26-11.62,15.41-4.13h0A8.23,8.23,0,0,0,302.69,197.72Z" transform="translate(-10.56 -15)" style="fill:#feb92d"/><path d="M309.79,319.82a10.55,10.55,0,0,1-9.29-5.53,5.65,5.65,0,0,0-5-3h0a5.63,5.63,0,0,0-5,3,10.73,10.73,0,0,1-20.1-5.39,5.74,5.74,0,0,0-8.68-5A10.72,10.72,0,0,1,247,289.18a5.72,5.72,0,0,0-4.91-8.67h-.29a10.73,10.73,0,0,1-5.2-20.11,5.72,5.72,0,0,0,0-10,10.59,10.59,0,0,1-5.15-12.16A10.77,10.77,0,0,1,242,230.28a6,6,0,0,0,5.06-2.86,5.68,5.68,0,0,0-.05-5.81,10.72,10.72,0,0,1,14.71-14.71,5.74,5.74,0,0,0,8.68-5,10.73,10.73,0,0,1,20.1-5.39,5.65,5.65,0,0,0,5,2.95h0a5.65,5.65,0,0,0,5-2.95h0a10.73,10.73,0,0,1,20.11,5.39,5.73,5.73,0,0,0,8.67,5A10.73,10.73,0,0,1,344,221.61a5.72,5.72,0,0,0,4.9,8.67h.29a10.73,10.73,0,0,1,5.2,20.11,5.72,5.72,0,0,0,0,10A10.73,10.73,0,0,1,349,280.51a5.72,5.72,0,0,0-5,8.67,10.73,10.73,0,0,1-14.72,14.71,5.73,5.73,0,0,0-8.67,5,10.58,10.58,0,0,1-8,10.54A10.92,10.92,0,0,1,309.79,319.82Zm-14.3-13.48h0a10.61,10.61,0,0,1,9.38,5.52A5.72,5.72,0,0,0,315.6,309a10.73,10.73,0,0,1,16.25-9.38,5.73,5.73,0,0,0,7.86-7.85,10.59,10.59,0,0,1-.1-10.88,10.86,10.86,0,0,1,9.48-5.36,5.72,5.72,0,0,0,5.62-4.25,5.51,5.51,0,0,0-2.75-6.48A10.74,10.74,0,0,1,352,246a5.73,5.73,0,0,0-2.75-10.73h-.31A10.72,10.72,0,0,1,339.71,219a5.73,5.73,0,0,0-7.86-7.85,10.74,10.74,0,0,1-16.25-9.38,5.72,5.72,0,0,0-10.72-2.88h0a10.61,10.61,0,0,1-9.38,5.52h0a10.61,10.61,0,0,1-9.38-5.52,5.72,5.72,0,0,0-10.72,2.88,10.74,10.74,0,0,1-16.25,9.38,5.72,5.72,0,0,0-7.85,7.85,10.73,10.73,0,0,1-9.38,16.24,5.67,5.67,0,0,0-5.62,4.25A5.49,5.49,0,0,0,239,246a10.74,10.74,0,0,1,0,18.76,5.73,5.73,0,0,0,2.75,10.74h.31a10.73,10.73,0,0,1,9.19,16.24,5.72,5.72,0,0,0,7.85,7.85A10.73,10.73,0,0,1,275.39,309a5.72,5.72,0,0,0,10.72,2.88A10.61,10.61,0,0,1,295.49,306.34Z" transform="translate(-10.56 -15)" style="fill:#4a3a70"/><circle cx="284.93" cy="240.39" r="39.41" style="fill:#e2a02b"/><path d="M295.49,297.31a41.92,41.92,0,1,1,41.92-41.92A42,42,0,0,1,295.49,297.31Zm0-78.82a36.91,36.91,0,1,0,36.91,36.9A36.94,36.94,0,0,0,295.49,218.49Z" transform="translate(-10.56 -15)" style="fill:#4a3a70"/><rect x="221.85" y="62.17" width="125.08" height="10.01" style="fill:#4a3a70"/><rect x="276.88" y="102.19" width="60.04" height="10.01" style="fill:#4a3a70"/></svg>