<svg id="Layer_1" data-name="Layer 1" xmlns="http://www.w3.org/2000/svg" viewBox="0 0 377.34 339.26"><title>pc</title><rect x="4.98" y="4.98" width="367.38" height="270.03" rx="4.09" style="fill:#eef9fd"/><path d="M356.68,310.44H30A25.35,25.35,0,0,1,4.66,285.12V55.77A25.35,25.35,0,0,1,30,30.45h326.7A25.35,25.35,0,0,1,382,55.77V285.12A25.35,25.35,0,0,1,356.68,310.44ZM30,40.41A15.38,15.38,0,0,0,14.62,55.77V285.12A15.38,15.38,0,0,0,30,300.48h326.7A15.38,15.38,0,0,0,372,285.12V55.77a15.38,15.38,0,0,0-15.36-15.36Z" transform="translate(-4.66 -30.45)" style="fill:#4a3a70"/><rect x="94.6" y="324.32" width="188.14" height="14.94" style="fill:#4a3a70"/><rect x="240.52" y="293.07" width="14.93" height="70.55" transform="translate(-85.73 50.86) rotate(-16.04)" style="fill:#4a3a70"/><rect x="104.25" y="320.87" width="70.55" height="14.93" transform="translate(-219.23 341.34) rotate(-73.97)" style="fill:#4a3a70"/><rect x="4.98" y="236.02" width="367.38" height="38.98" rx="3.91" style="fill:#605575"/><path d="M357.53,310.44H29.13a24.47,24.47,0,0,1,0-48.94h328.4a24.47,24.47,0,1,1,0,48.94Zm-328.4-39a14.52,14.52,0,0,0,0,29h328.4a14.52,14.52,0,0,0,0-29Z" transform="translate(-4.66 -30.45)" style="fill:#4a3a70"/><polygon points="82.22 106.53 93.24 85.15 103.51 106.9 127.25 110.77 109.74 127.26 113.4 151.03 92.3 139.47 70.82 150.3 75.3 126.67 58.36 109.58 82.22 106.53" style="fill:#feb92d"/><path d="M124.51,190.7,96.86,175.55,68.72,189.73l5.86-31-22.2-22.4,31.27-4,14.44-28,13.46,28.51,31.12,5.07-22.95,21.6ZM97.06,164.3l14.55,8-2.53-16.39,12.07-11.37-16.37-2.67-7.08-15-7.59,14.74-16.45,2.1,11.67,11.78-3.08,16.29Z" transform="translate(-4.66 -30.45)" style="fill:#4a3a70"/><polygon points="178.09 106.53 189.1 85.15 199.37 106.9 223.11 110.77 205.6 127.26 209.26 151.03 188.16 139.47 166.69 150.3 171.16 126.67 154.23 109.58 178.09 106.53" style="fill:#feb92d"/><path d="M220.38,190.7l-27.65-15.15-28.15,14.18,5.86-31-22.19-22.4,31.27-4,14.43-28,13.47,28.51,31.11,5.07-22.95,21.6Zm-27.46-26.4,14.54,8-2.52-16.39L217,144.51l-16.36-2.67-7.09-15L186,141.59l-16.45,2.1,11.68,11.78-3.08,16.29Z" transform="translate(-4.66 -30.45)" style="fill:#4a3a70"/><polygon points="276.94 106.53 287.95 85.15 298.22 106.9 321.96 110.77 304.45 127.26 308.11 151.03 287.02 139.47 265.54 150.3 270.01 126.67 253.08 109.58 276.94 106.53" style="fill:#feb92d"/><path d="M319.23,190.7l-27.65-15.15-28.15,14.18,5.86-31-22.19-22.4,31.27-4,14.43-28,13.47,28.51,31.11,5.07-22.95,21.6Zm-27.46-26.4,14.54,8-2.52-16.39,12.07-11.37-16.36-2.67-7.09-15-7.59,14.74-16.45,2.1,11.68,11.78L277,171.76Z" transform="translate(-4.66 -30.45)" style="fill:#4a3a70"/></svg>