<svg id="Layer_1" data-name="Layer 1" xmlns="http://www.w3.org/2000/svg" viewBox="0 0 366.17 459.83"><title>pdf</title><polygon points="324.96 418.63 5.89 418.63 5.89 5.89 264.35 5.89 324.46 6.76 324.46 168.18 324.96 418.63" style="fill:#e3f6ff"/><path d="M342.67,431.52H11.81V7H276.16l66,1V175.18ZM23.58,419.74H330.87l-.49-244.55V19.56l-54.31-.79H23.58Z" transform="translate(-11.81 -7)" style="fill:#4a3a70"/><polygon points="360.28 453.94 41.2 453.94 41.2 41.2 299.67 41.2 359.78 101.31 359.78 203.49 360.28 453.94" style="fill:#e3f6ff"/><path d="M378,466.83H47.12V42.31H313.91l63.56,63.56V210.49ZM58.89,455.06h307.3L365.7,210.5V110.75L309,54.09H58.89Z" transform="translate(-11.81 -7)" style="fill:#4a3a70"/><polygon points="359.02 370.67 160.16 370.67 160.16 277.5 321.25 277.5 358.71 277.85 358.71 314.14 359.02 370.67" style="fill:#e3615f"/><path d="M376.75,383.56H166.09V278.62h167l43.35.39v42.13ZM177.86,371.79H364.91l-.27-81.11L333,290.39H177.86Z" transform="translate(-11.81 -7)" style="fill:#4a3a70"/><path d="M220.54,348.87V311h9.31q7.46,0,11,2.85t3.56,8.79a10.85,10.85,0,0,1-3.59,8.64q-3.59,3.14-9.91,3.13h-2.23v14.46Zm8.15-20.77h1.16q3.32,0,4.82-1.37c1-.91,1.49-2.38,1.49-4.4a5.06,5.06,0,0,0-1.49-4.07q-1.5-1.27-4.82-1.28h-1.16Z" transform="translate(-11.81 -7)" style="fill:#605575"/><path d="M254.4,348.87V311h10.32a43.24,43.24,0,0,1,9.62.85,17,17,0,0,1,6.18,2.86,16.37,16.37,0,0,1,5.22,6.44,23,23,0,0,1,0,17.8,16.39,16.39,0,0,1-5.3,6.43,17.05,17.05,0,0,1-5.76,2.67,39.32,39.32,0,0,1-9.27.82h-11Zm8.1-6.83H267q6.38,0,9.28-2.9c1.94-1.93,2.91-5,2.91-9.18s-1-7.23-2.91-9.17-5-2.91-9.28-2.91H262.5Z" transform="translate(-11.81 -7)" style="fill:#605575"/><path d="M298.68,348.87V311H321v6.83h-14.2v7.78H321v6.89h-14.2v16.37Z" transform="translate(-11.81 -7)" style="fill:#605575"/></svg>