<svg id="Layer_1" data-name="Layer 1" xmlns="http://www.w3.org/2000/svg" viewBox="0 0 383.38 385.71"><title>qa</title><path d="M269.73,183H133.08a21.73,21.73,0,0,1-21.67-21.66V31.21A21.73,21.73,0,0,1,133.08,9.55h225a21.73,21.73,0,0,1,21.67,21.66V161.33A21.73,21.73,0,0,1,358.08,183H329.66v54.15Z" transform="translate(-1.62 -4.29)" style="fill:#72c666"/><path d="M334.91,249,267.7,188.25H133.08a27,27,0,0,1-26.92-26.92V31.21A27,27,0,0,1,133.08,4.29h225A27,27,0,0,1,385,31.21V161.33a27,27,0,0,1-26.92,26.92H334.91ZM133.08,14.8a16.43,16.43,0,0,0-16.41,16.41V161.33a16.43,16.43,0,0,0,16.41,16.41H271.75l52.65,47.57V177.74h33.68a16.43,16.43,0,0,0,16.41-16.41V31.21A16.43,16.43,0,0,0,358.08,14.8Z" transform="translate(-1.62 -4.29)" style="fill:#4a3a70"/><path d="M116.89,324" transform="translate(-1.62 -4.29)" style="fill:none;stroke:#605575;stroke-miterlimit:10;stroke-width:2px"/><path d="M116.89,324H253.54a21.73,21.73,0,0,0,21.67-21.67V172.25a21.73,21.73,0,0,0-21.67-21.67h-225A21.73,21.73,0,0,0,6.87,172.25V302.36A21.73,21.73,0,0,0,28.54,324H57v54.14Z" transform="translate(-1.62 -4.29)" style="fill:#feb92d"/><path d="M51.71,390V329.28H28.54A26.94,26.94,0,0,1,1.62,302.37V172.25a27,27,0,0,1,26.92-26.92h225a27,27,0,0,1,26.92,26.92V302.37a26.94,26.94,0,0,1-26.92,26.91H118.91ZM28.54,155.84a16.43,16.43,0,0,0-16.41,16.41V302.37a16.42,16.42,0,0,0,16.41,16.4H62.22v47.57l52.65-47.57H253.54A16.42,16.42,0,0,0,270,302.37V172.25a16.43,16.43,0,0,0-16.41-16.41Z" transform="translate(-1.62 -4.29)" style="fill:#4a3a70"/><path d="M112.84,273.08h-16l-8.14-9.65q-5.53,1.44-9.19,2.08a37.94,37.94,0,0,1-6.52.64,41,41,0,0,1-28.09-11.44A38.89,38.89,0,0,1,36.19,242a39.09,39.09,0,0,1,0-30.18A39.2,39.2,0,0,1,44.92,199a38.57,38.57,0,0,1,12.92-8.5,41.32,41.32,0,0,1,15.49-2.95,40.68,40.68,0,0,1,15.3,2.95,39.72,39.72,0,0,1,13,8.5,39.09,39.09,0,0,1,8.7,12.72,38.36,38.36,0,0,1,3,15.14,37.81,37.81,0,0,1-3.64,16.48A40.65,40.65,0,0,1,99,256.91ZM84,238.9l5.51,6.52A24.76,24.76,0,0,0,94.86,237a27.62,27.62,0,0,0,1.87-10A25.55,25.55,0,0,0,90,209a21.72,21.72,0,0,0-16.7-7.28A22,22,0,0,0,56.46,209a25.55,25.55,0,0,0-6.69,18q0,10.83,6.57,18A21.69,21.69,0,0,0,73,252a22.63,22.63,0,0,0,2.43-.18c1-.12,2.27-.3,3.7-.54L68.37,238.9Z" transform="translate(-1.62 -4.29)" style="fill:#605575"/><path d="M277.21,104.08,305.8,29h18.37l29,75.13H334.89l-6.1-16h-29.1l-5.23,16ZM325,75.5l-8.42-24.28c-.24-.71-.54-1.95-.92-3.69s-.77-3.88-1.18-6.41c-.45,2.42-.87,4.6-1.28,6.54s-.72,3.22-.93,3.87l-8.1,24Z" transform="translate(-1.62 -4.29)" style="fill:#605575"/><line x1="216.35" y1="50.2" x2="137.52" y2="50.2" style="fill:#605575"/><rect x="137.52" y="44.95" width="78.82" height="10.51" style="fill:#605575"/><line x1="184.82" y1="81.73" x2="137.52" y2="81.73" style="fill:#605575"/><rect x="137.52" y="76.48" width="47.29" height="10.51" style="fill:#605575"/><line x1="242.62" y1="202.59" x2="163.8" y2="202.59" style="fill:#605575"/><rect x="163.8" y="197.34" width="78.82" height="10.51" style="fill:#605575"/><line x1="242.62" y1="234.12" x2="195.33" y2="234.12" style="fill:#605575"/><rect x="195.33" y="228.87" width="47.29" height="10.51" style="fill:#605575"/></svg>